<?xml version="1.0" encoding="UTF-8"?><svg xmlns="http://www.w3.org/2000/svg" xmlns:xlink="http://www.w3.org/1999/xlink" viewBox="0 0 500 500"><defs><linearGradient id="d" x1="0" y1="250" x2="500" y2="250" gradientUnits="userSpaceOnUse"><stop offset="0" stop-color="#e7accf"/><stop offset=".98" stop-color="#caaad1"/></linearGradient><linearGradient id="g" x1="286.02" y1="365.67" x2="413.27" y2="140.54" gradientUnits="userSpaceOnUse"><stop offset="0" stop-color="#81318a"/><stop offset=".28" stop-color="#932e7a"/><stop offset=".85" stop-color="#c32751"/><stop offset="1" stop-color="#d12546"/></linearGradient><linearGradient id="h" x1="271.04" y1="399.27" x2="319.81" y2="297.14" gradientUnits="userSpaceOnUse"><stop offset="0" stop-color="#35282c"/><stop offset="1" stop-color="#35282c" stop-opacity="0"/></linearGradient><linearGradient id="i" x1="211.96" y1="137.93" x2="138.92" y2="245.67" gradientUnits="userSpaceOnUse"><stop offset="0" stop-color="#984191"/><stop offset=".3" stop-color="#a63a7e"/><stop offset=".9" stop-color="#ca284e"/><stop offset="1" stop-color="#d12546"/></linearGradient><linearGradient id="j" x1="184.3" y1="172.81" x2="139.87" y2="226.13" xlink:href="#h"/><linearGradient id="k" x1="414.13" y1="482.46" x2="142.01" y2="210.34" gradientUnits="userSpaceOnUse"><stop offset="0" stop-color="#904091"/><stop offset=".26" stop-color="#a24486"/><stop offset=".77" stop-color="#d24e6a"/><stop offset="1" stop-color="#ea545c"/></linearGradient><linearGradient id="l" x1="365.17" y1="436.79" x2="91.1" y2="259.62" xlink:href="#k"/><linearGradient id="m" x1="363.54" y1="463.53" x2="120.79" y2="357.82" xlink:href="#k"/><linearGradient id="n" x1="364.59" y1="306.94" x2="213.03" y2="98.66" gradientUnits="userSpaceOnUse"><stop offset="0" stop-color="#904091"/><stop offset=".26" stop-color="#a24486"/><stop offset=".77" stop-color="#d24e6a"/><stop offset="1" stop-color="#ea545c"/></linearGradient><linearGradient id="o" x1="353.59" y1="250.72" x2="200.99" y2="50.7" xlink:href="#k"/><linearGradient id="p" x1="271.74" y1="99" x2="73.56" y2="181.64" xlink:href="#k"/></defs><g isolation="isolate"><g id="b"><g id="c"><rect id="e" width="500" height="500" fill="url(#d)" stroke-width="0"/><g id="f"><path d="m442.97,249.48c0-54.6-22.63-103.91-59.02-139.08,35.92,124.53-40.68,245.29-126.44,211.22-94.06-37.36-156.32,121.27,76.8,101.75,64.33-31.42,108.66-97.47,108.66-173.89Z" fill="url(#g)" stroke-width="0"/><path d="m257.51,321.63c-94.06-37.36-156.32,121.27,76.8,101.75,45.71-22.32,85.31-75.17,102.09-123.75-38.89,83.05-120.05,66.63-178.9,22Z" fill="url(#h)" mix-blend-mode="overlay" opacity=".27" stroke-width="0"/><path d="m56.15,249.21c0,54.6,22.63,103.91,59.02,139.08-35.92-124.53,40.68-245.29,126.44-211.22,94.06,37.36,156.32-121.27-76.8-101.75-64.33,31.42-108.66,97.47-108.66,173.89Z" fill="url(#i)" stroke-width="0"/><path d="m164.81,75.32c-33.64,16.43-61.8,42.34-81.02,74.25,33.19-25.69,75.24,3.42,90.37,31.9,20.27-11.35,43.5-13.92,67.45-4.4,94.06,37.36,156.32-121.27-76.8-101.75Z" fill="url(#j)" mix-blend-mode="overlay" opacity=".27" stroke-width="0"/><path d="m214.13,285.93c-84.16-114.55-162.44-103.56-156.91-16.05,10.19,97.23,92.41,173.02,192.34,173.02,89.48,0,164.76-60.76,186.85-143.27-34.43,99.95-142.56,94.81-222.28-13.7Z" fill="url(#k)" stroke-width="0"/><path d="m229.06,350.79c-56.81-62.05-99.56-86.71-131.34-78.41-24.72,6.45-33.91,41.94-6.32,88.42,35.01,49.66,92.8,82.1,158.18,82.1,69.66,0,130.72-36.83,164.77-92.08-51.6,68.17-128.67,61.81-185.28-.03Z" fill="url(#l)" mix-blend-mode="color-dodge" opacity=".31" stroke-width="0"/><path d="m353.5,412.62c-122.34,43.48-166.49-75.02-217.24-58.8-26.95,8.61-10.22,56.56,45.99,77.04,21.01,7.65,43.64,12.04,67.31,12.04,38.26,0,73.92-11.11,103.94-30.28Z" fill="url(#m)" mix-blend-mode="color-dodge" opacity=".31" stroke-width="0"/><path d="m400.05,127.99c-35.46-43.86-89.69-71.92-150.48-71.92-70.11,0-131.51,37.3-165.43,93.15,39.53-38.82,82.01-26,146.21,80.68,38.89,64.63,98.4,92.61,146.48,71,48.34-21.72,64.38-113.66,23.22-172.91Z" fill="url(#n)" stroke-width="0"/><path d="m359.55,90.4c-31.23-21.64-69.12-34.33-109.99-34.33-52.16,0-99.48,20.66-134.27,54.22,16.55-14.16,71.02-32.92,141.9,68.28,32.78,46.79,94.22,61.73,122.03,38.72,29.62-24.51,23.35-89.76-19.68-126.89Z" fill="url(#o)" mix-blend-mode="color-dodge" opacity=".31" stroke-width="0"/><path d="m216.45,58.9c-23.53,4.06-45.59,12.37-65.39,24.11.42-.16,47.99-18.03,91.43,18.83,37.25,31.6,73.32,53.33,96.55,36.58,33.46-24.13-57.8-87.74-122.59-79.52Z" fill="url(#p)" mix-blend-mode="color-dodge" opacity=".37" stroke-width="0"/></g></g></g></g></svg>