<?xml version="1.0" encoding="UTF-8"?><svg xmlns="http://www.w3.org/2000/svg" xmlns:xlink="http://www.w3.org/1999/xlink" viewBox="0 0 500 500"><defs><linearGradient id="f" x1="290.61" y1="366.47" x2="417.86" y2="141.34" gradientUnits="userSpaceOnUse"><stop offset="0" stop-color="#81318a"/><stop offset=".28" stop-color="#932e7a"/><stop offset=".85" stop-color="#c32751"/><stop offset="1" stop-color="#d12546"/></linearGradient><linearGradient id="g" x1="275.63" y1="400.08" x2="324.39" y2="297.94" gradientUnits="userSpaceOnUse"><stop offset="0" stop-color="#35282c"/><stop offset="1" stop-color="#35282c" stop-opacity="0"/></linearGradient><linearGradient id="h" x1="216.55" y1="138.73" x2="143.51" y2="246.47" gradientUnits="userSpaceOnUse"><stop offset="0" stop-color="#984191"/><stop offset=".3" stop-color="#a63a7e"/><stop offset=".9" stop-color="#ca284e"/><stop offset="1" stop-color="#d12546"/></linearGradient><linearGradient id="i" x1="188.88" y1="173.62" x2="144.45" y2="226.93" xlink:href="#g"/><linearGradient id="j" x1="418.72" y1="483.26" x2="146.6" y2="211.15" gradientUnits="userSpaceOnUse"><stop offset="0" stop-color="#904091"/><stop offset=".26" stop-color="#a24486"/><stop offset=".77" stop-color="#d24e6a"/><stop offset="1" stop-color="#ea545c"/></linearGradient><linearGradient id="k" x1="369.76" y1="437.59" x2="95.69" y2="260.42" xlink:href="#j"/><linearGradient id="l" x1="368.13" y1="464.34" x2="125.37" y2="358.62" xlink:href="#j"/><linearGradient id="m" x1="369.18" y1="307.75" x2="217.61" y2="99.47" xlink:href="#j"/><linearGradient id="n" x1="358.18" y1="251.53" x2="205.58" y2="51.5" xlink:href="#j"/><linearGradient id="o" x1="276.33" y1="99.81" x2="78.14" y2="182.45" xlink:href="#j"/></defs><g isolation="isolate"><g id="b"><g id="c"><rect id="d" width="500" height="500" fill="#39323f" stroke-width="0"/><g id="e"><path d="m447.56,250.29c0-54.6-22.63-103.91-59.02-139.08,35.92,124.53-40.68,245.29-126.44,211.22-94.06-37.36-156.32,121.27,76.8,101.75,64.33-31.42,108.66-97.47,108.66-173.89Z" fill="url(#f)" stroke-width="0"/><path d="m262.1,322.43c-94.06-37.36-156.32,121.27,76.8,101.75,45.71-22.32,85.31-75.17,102.09-123.75-38.89,83.05-120.05,66.63-178.9,22Z" fill="url(#g)" mix-blend-mode="overlay" opacity=".27" stroke-width="0"/><path d="m60.74,250.02c0,54.6,22.63,103.91,59.02,139.08-35.92-124.53,40.68-245.29,126.44-211.22,94.06,37.36,156.32-121.27-76.8-101.75-64.33,31.42-108.66,97.47-108.66,173.89Z" fill="url(#h)" stroke-width="0"/><path d="m169.4,76.13c-33.64,16.43-61.8,42.34-81.02,74.25,33.19-25.69,75.24,3.42,90.37,31.9,20.27-11.35,43.5-13.92,67.45-4.4,94.06,37.36,156.32-121.27-76.8-101.75Z" fill="url(#i)" mix-blend-mode="overlay" opacity=".27" stroke-width="0"/><path d="m218.72,286.74c-84.16-114.55-162.44-103.56-156.91-16.05,10.19,97.23,92.41,173.02,192.34,173.02,89.48,0,164.76-60.76,186.85-143.27-34.43,99.95-142.56,94.81-222.28-13.7Z" fill="url(#j)" stroke-width="0"/><path d="m233.64,351.59c-56.81-62.05-99.56-86.71-131.34-78.41-24.72,6.45-33.91,41.94-6.32,88.42,35.01,49.66,92.8,82.1,158.18,82.1,69.66,0,130.72-36.83,164.77-92.08-51.6,68.17-128.67,61.81-185.28-.03Z" fill="url(#k)" mix-blend-mode="color-dodge" opacity=".31" stroke-width="0"/><path d="m358.09,413.42c-122.34,43.48-166.49-75.02-217.24-58.8-26.95,8.61-10.22,56.56,45.99,77.04,21.01,7.65,43.64,12.04,67.31,12.04,38.26,0,73.92-11.11,103.94-30.28Z" fill="url(#l)" mix-blend-mode="color-dodge" opacity=".31" stroke-width="0"/><path d="m404.63,128.8c-35.46-43.86-89.69-71.92-150.48-71.92-70.11,0-131.51,37.3-165.43,93.15,39.53-38.82,82.01-26,146.21,80.68,38.89,64.63,98.4,92.61,146.48,71,48.34-21.72,64.38-113.66,23.22-172.91Z" fill="url(#m)" stroke-width="0"/><path d="m364.14,91.21c-31.23-21.64-69.12-34.33-109.99-34.33-52.16,0-99.48,20.66-134.27,54.22,16.55-14.16,71.02-32.92,141.9,68.28,32.78,46.79,94.22,61.73,122.03,38.72,29.62-24.51,23.35-89.76-19.68-126.89Z" fill="url(#n)" mix-blend-mode="color-dodge" opacity=".31" stroke-width="0"/><path d="m221.04,59.71c-23.53,4.06-45.59,12.37-65.39,24.11.42-.16,47.99-18.03,91.43,18.83,37.25,31.6,73.32,53.33,96.55,36.58,33.46-24.13-57.8-87.74-122.59-79.52Z" fill="url(#o)" mix-blend-mode="color-dodge" opacity=".37" stroke-width="0"/></g></g></g></g></svg>