<?xml version="1.0" encoding="UTF-8"?><svg id="b" xmlns="http://www.w3.org/2000/svg" xmlns:xlink="http://www.w3.org/1999/xlink" viewBox="0 0 500 500"><defs><linearGradient id="e" x1="0" y1="250" x2="500" y2="250" gradientUnits="userSpaceOnUse"><stop offset="0" stop-color="#633e91"/><stop offset="1" stop-color="#8861a6"/></linearGradient></defs><g id="c"><g id="d"><rect id="f" width="500" height="500" fill="url(#e)" stroke-width="0"/><g id="g"><path id="h" d="m368.65,295.99c-5.83-11.34-11.65-22.08-18.4-32.5-30.97,47.83-82.78,90.75-148.09,117.43l22.08,53.96c67.45-27.29,118.04-78.8,144.41-138.89Z" fill="#fff" stroke-width="0"/><path id="i" d="m234.36,361.6c8.89-4.91,17.78-10.12,26.06-15.64-57.64-27.59-110.99-85.24-142.26-161.89l-53.96,22.08c32.5,79.1,96.89,134.6,170.16,155.45Z" fill="#fff" stroke-width="0"/><path id="j" d="m320.82,119.08l-21.77-53.96c-77.26,31.27-131.84,93.51-153.91,164.34,5.52,8.89,11.04,17.48,16.86,25.75,28.51-55.19,84.93-106.08,158.82-136.13Z" fill="#fff" stroke-width="0"/><path id="k" d="m435.8,292.92c-30.05-73.58-87.69-126.63-154.53-150.85-9.81,5.83-19.01,11.65-27.9,18.09,52.43,29.74,99.65,84.32,128.47,154.83l53.96-22.08Z" fill="#fff" stroke-width="0"/><circle id="l" cx="257.97" cy="255.21" r="33.42" fill="#fff" stroke-width="0"/></g></g></g></svg>