<?xml version="1.0" encoding="UTF-8"?><svg id="b" xmlns="http://www.w3.org/2000/svg" xmlns:xlink="http://www.w3.org/1999/xlink" viewBox="0 0 808 170"><defs><linearGradient id="g" x1="171.33" y1="87.11" x2="798.68" y2="87.11" gradientUnits="userSpaceOnUse"><stop offset="0" stop-color="#633e91"/><stop offset="1" stop-color="#8861a6"/></linearGradient><linearGradient id="j" x1="63.14" y1="125.22" x2="130.65" y2="125.22" xlink:href="#g"/><linearGradient id="l" x1="7.2" y1="94.26" x2="86.77" y2="94.26" xlink:href="#g"/><linearGradient id="n" x1="40.02" y1="48.57" x2="111.26" y2="48.57" xlink:href="#g"/><linearGradient id="p" x1="83.91" y1="76.3" x2="153.84" y2="76.3" xlink:href="#g"/><linearGradient id="r" x1="72.22" y1="87.11" x2="99.32" y2="87.11" xlink:href="#g"/></defs><g id="c"><g id="d"><rect id="e" width="808" height="170" fill="none" stroke-width="0"/><g id="f"><path id="h" d="m184.12,44.07c1.28,0,2.13.43,2.98,1.28.85.85,1.28,1.7,1.28,2.98v76.71c0,1.28-.43,2.13-1.28,2.98-.85.85-1.7,1.28-2.98,1.28h-8.52c-1.28,0-2.13-.43-2.98-1.28s-1.28-1.7-1.28-2.98V48.33c0-1.28.43-2.13,1.28-2.98s1.7-1.28,2.56-1.28h8.95Zm41.77,68.62c1.28,0,2.13.43,2.98,1.28s1.28,1.7,1.28,2.98v8.52c0,1.28-.43,2.13-1.28,2.98s-1.7.85-2.98.85h-26.85c-1.28,0-2.13-.43-2.98-1.28-.85-.85-1.28-1.7-1.28-2.98v-8.52c0-1.28.43-2.13,1.28-2.98.85-.85,1.7-1.28,2.98-1.28h26.85v.43Zm75.86,0c1.28,0,2.13.43,2.98,1.28s1.28,1.7,1.28,2.98v8.52c0,1.28-.43,2.13-1.28,2.98s-1.7.85-2.98.85h-56.68c-1.28,0-2.13-.43-2.98-1.28-.85-.85-1.28-1.7-1.28-2.98v-8.52c0-1.28.43-2.13,1.28-2.98.85-.85,1.7-1.28,2.98-1.28,0,.43,56.68.43,56.68.43Zm-56.68-17.47c-1.28,0-2.13-.43-2.98-1.28-.85-.85-1.28-1.7-1.28-2.98v-8.52c0-1.28.43-2.13,1.28-2.98.85-.85,1.7-1.28,2.98-1.28h51.57c1.28,0,2.13.43,2.98,1.28s1.28,1.7,1.28,2.98v8.52c0,1.28-.43,2.13-1.28,2.98s-1.7,1.28-2.98,1.28h-51.57Zm56.68-51.14c1.28,0,2.13.43,2.98,1.28.85.85,1.28,1.7,1.28,2.98v8.52c0,1.28-.43,2.13-1.28,2.98s-1.7,1.28-2.98,1.28h-56.68c-1.28,0-2.13-.43-2.98-1.28s-1.28-1.7-1.28-2.98v-8.52c0-1.28.43-2.13,1.28-2.98.85-.85,1.7-1.28,2.98-1.28h56.68Zm89.5,2.13c.85,1.28.85,2.56.43,3.84l-31.54,77.57c-.43.85-.85,1.28-1.7,1.7s-1.28.85-2.13.85h-10.23c-.85,0-1.7-.43-2.13-.85-.85-.43-1.28-1.28-1.7-1.7l-31.11-77.99c-.43-1.28-.43-2.56.43-3.84.85-.85,2.13-1.7,3.41-1.7h38.36c1.28,0,2.13.43,2.98,1.28s1.28,1.7,1.28,2.98v8.52c0,1.28-.43,2.13-1.28,2.98s-1.7,1.28-2.98,1.28h-19.18l17.47,44.32,23.01-58.39c.43-.85.85-1.28,1.7-1.7.43-.85,1.28-1.28,2.13-1.28h9.8c.85,0,1.28,0,2.13.43,0,.43.85.85.85,1.7h0Zm61.8.85c4.69,1.7,8.95,4.69,12.79,8.52,8.1,8.1,11.93,18.33,11.93,31.11s-3.84,23.01-11.93,31.11c-3.84,3.84-8.1,6.82-12.79,8.52-4.69,2.13-9.8,2.98-14.92,2.98h-32.39c-1.28,0-2.13-.43-2.98-1.28s-1.28-1.7-1.28-2.98v-8.1c0-1.28.43-2.13,1.28-2.98.85-.85,1.7-1.28,2.98-1.28h31.96c6.82,0,12.36-2.56,16.62-7.67,4.26-5.11,6.39-11.08,6.39-18.75s-1.7-13.21-5.97-18.33c-4.26-5.11-9.8-7.67-16.62-7.67h-31.96c-1.28,0-2.13-.43-2.98-1.28s-1.28-1.7-1.28-2.98v-7.67c0-1.28.43-2.13,1.28-2.98.85-.85,1.7-1.28,2.56-1.28h32.39c5.11,0,10.23,1.28,14.92,2.98Zm148.31-1.28c.85,1.28.85,2.13.43,3.41l-24.29,77.57c-.43.85-.85,1.7-1.28,2.13-.85.43-1.7.85-2.56.85h-9.8c-.85,0-1.7-.43-2.56-.85s-1.28-1.28-1.28-2.13l-17.05-53.27-17.05,53.27c-.43.85-.85,1.7-1.7,2.13-.85.43-1.7.85-2.56.85h-9.8c-1.28,0-2.56-.43-3.41-1.7-.85-1.28-.85-2.56-.43-3.84l26-77.99c.43-.85.85-1.28,1.28-2.13.85.43,1.7,0,2.56,0h10.23c.85,0,1.7.43,2.56.85s1.28,1.28,1.7,2.13l17.05,52.85,16.2-52.85c.43-.85.85-1.7,1.7-2.13.85-.43,1.7-.85,2.56-.85h9.38c.43,0,1.28.85,2.13,1.7h0Zm-100.58,1.28l6.39,21.31c.43,1.28.43,2.56-.43,3.41-.85,1.28-2.13,2.13-3.41,2.13h-8.95c-.85,0-1.7-.43-2.56-.85-.85-.43-1.28-1.28-1.28-2.13l-6.82-21.31c-.43-1.28,0-2.56.85-3.84.85-.85,1.7-1.7,2.98-1.7h9.38c.85,0,1.7.43,2.56.85s1.28,1.28,1.28,2.13h0Zm124.45,31.11c1.28,0,2.13.43,2.98,1.28s1.28,1.7,1.28,2.98v43.04c0,1.28-.43,2.13-1.28,2.98-.85.85-1.7,1.28-2.98,1.28h-8.52c-1.28,0-2.13-.43-2.98-1.28-.85-.85-1.28-1.7-1.28-2.98v-43.04c0-1.28.43-2.13,1.28-2.98.85-.85,1.7-1.28,2.98-1.28h8.52Zm0-34.1c1.28,0,2.13.43,2.98,1.28.85.85,1.28,1.7,1.28,2.98v21.31c0,1.28-.43,2.13-1.28,2.98-.85.85-1.7,1.28-2.98,1.28h-8.52c-1.28,0-2.13-.43-2.98-1.28s-1.28-1.7-1.28-2.98v-21.31c0-1.28.43-2.13,1.28-2.98.85-.85,1.7-1.28,2.98-1.28h8.52Zm77.14,52.42l17.47,26.42c.85,1.28.85,2.56,0,4.26-.43.43-.85,1.28-1.28,1.7-.85.43-1.28.43-2.13.43h-10.65c-.85,0-1.28,0-2.13-.43-.43-.43-1.28-.85-1.28-1.28l-17.47-27.7h-20.46v25.57c0,1.28-.43,2.13-1.28,2.98s-1.7,1.28-2.98,1.28h-8.52c-1.28,0-2.13-.43-2.98-1.28s-1.28-1.7-1.28-2.98v-37.93c0-1.28.43-2.13,1.28-2.98s1.7-1.28,2.98-1.28h35.37c6.82,0,11.08-1.7,13.64-5.54.85-1.28,1.28-2.98,1.28-5.11,0-3.41-1.28-6.39-3.41-8.52-2.56-2.13-5.97-3.41-10.65-3.41h-35.8c-1.28,0-2.13-.43-2.98-1.28s-1.28-1.7-1.28-2.98v-8.1c0-1.28.43-2.13,1.28-2.98.85-.85,1.7-1.28,2.98-1.28h36.65c8.95,0,16.2,2.56,21.31,7.67,5.54,5.11,8.52,11.93,8.52,20.46,0,5.54-1.28,10.23-3.84,14.49-2.56,3.84-5.97,6.82-10.65,8.95l-1.7.85Zm92.06,16.2c1.28,0,2.13.43,2.98,1.28.85.85,1.28,1.7,1.28,2.98v8.52c0,1.28-.43,2.13-1.28,2.98s-1.7,1.28-2.98,1.28h-56.68c-1.28,0-2.13-.43-2.98-1.28s-1.28-1.7-1.28-2.98v-8.52c0-1.28.43-2.13,1.28-2.98s1.7-1.28,2.98-1.28h56.68Zm-56.68-17.47c-1.28,0-2.13-.43-2.98-1.28s-1.28-1.7-1.28-2.98v-8.52c0-1.28.43-2.13,1.28-2.98s1.7-1.28,2.98-1.28h51.57c1.28,0,2.13.43,2.98,1.28s1.28,1.7,1.28,2.98v8.52c0,1.28-.43,2.13-1.28,2.98s-1.7,1.28-2.98,1.28h-51.57Zm56.68-51.14c1.28,0,2.13.43,2.98,1.28.85.85,1.28,1.7,1.28,2.98v8.52c0,1.28-.43,2.13-1.28,2.98s-1.7,1.28-2.98,1.28h-56.68c-1.28,0-2.13-.43-2.98-1.28s-1.28-1.7-1.28-2.98v-8.52c0-1.28.43-2.13,1.28-2.98s1.7-1.28,2.98-1.28h56.68Z" fill="url(#g)" stroke-width="0"/></g><g id="i"><path id="k" d="m130.65,103.65c-2.36-4.6-4.72-8.95-7.46-13.18-12.56,19.39-33.57,36.8-60.05,47.62l8.95,21.88c27.35-11.06,47.86-31.95,58.56-56.32Z" fill="url(#j)" stroke-width="0"/><path id="m" d="m76.2,130.25c3.61-1.99,7.21-4.1,10.57-6.34-23.37-11.19-45.01-34.56-57.69-65.64l-21.88,8.95c13.18,32.08,39.29,54.58,69,63.03Z" fill="url(#l)" stroke-width="0"/><path id="o" d="m111.26,31.91l-8.83-21.88c-31.33,12.68-53.46,37.92-62.41,66.64,2.24,3.61,4.48,7.09,6.84,10.44,11.56-22.38,34.44-43.02,64.4-55.2Z" fill="url(#n)" stroke-width="0"/><path id="q" d="m153.84,102.41c-12.18-29.84-31.52-51.35-58.62-61.17-3.98,2.36-7.71,4.72-11.31,7.34,21.26,12.06,40.41,34.19,52.09,62.78l17.84-8.95Z" fill="url(#p)" stroke-width="0"/><circle id="s" cx="85.77" cy="87.11" r="13.55" fill="url(#r)" stroke-width="0"/></g></g></g></svg>