<?xml version="1.0" encoding="UTF-8"?><svg xmlns="http://www.w3.org/2000/svg" xmlns:xlink="http://www.w3.org/1999/xlink" viewBox="0 0 808 170.23"><defs><linearGradient id="g" x1="100.78" y1="136.38" x2="156.57" y2="37.67" gradientUnits="userSpaceOnUse"><stop offset="0" stop-color="#81318a"/><stop offset=".28" stop-color="#932e7a"/><stop offset=".85" stop-color="#c32751"/><stop offset="1" stop-color="#d12546"/></linearGradient><linearGradient id="h" x1="94.21" y1="151.11" x2="115.59" y2="106.33" gradientUnits="userSpaceOnUse"><stop offset="0" stop-color="#35282c"/><stop offset="1" stop-color="#35282c" stop-opacity="0"/></linearGradient><linearGradient id="i" x1="68.31" y1="36.53" x2="36.29" y2="83.76" gradientUnits="userSpaceOnUse"><stop offset="0" stop-color="#984191"/><stop offset=".3" stop-color="#a63a7e"/><stop offset=".9" stop-color="#ca284e"/><stop offset="1" stop-color="#d12546"/></linearGradient><linearGradient id="j" x1="56.18" y1="51.82" x2="36.7" y2="75.2" xlink:href="#h"/><linearGradient id="k" x1="156.94" y1="187.58" x2="37.64" y2="68.28" gradientUnits="userSpaceOnUse"><stop offset="0" stop-color="#904091"/><stop offset=".26" stop-color="#a24486"/><stop offset=".77" stop-color="#d24e6a"/><stop offset="1" stop-color="#ea545c"/></linearGradient><linearGradient id="l" x1="135.48" y1="167.56" x2="15.32" y2="89.88" xlink:href="#k"/><linearGradient id="m" x1="134.76" y1="179.28" x2="28.34" y2="132.93" xlink:href="#k"/><linearGradient id="n" x1="135.23" y1="110.63" x2="68.78" y2="19.32" gradientUnits="userSpaceOnUse"><stop offset="0" stop-color="#904091"/><stop offset=".26" stop-color="#a24486"/><stop offset=".77" stop-color="#d24e6a"/><stop offset="1" stop-color="#ea545c"/></linearGradient><linearGradient id="o" x1="130.4" y1="85.98" x2="63.5" y2="-1.71" xlink:href="#k"/><linearGradient id="p" x1="94.52" y1="19.46" x2="7.63" y2="55.69" xlink:href="#k"/></defs><g isolation="isolate"><g id="b"><g id="c"><rect id="d" width="808" height="170" fill="none" stroke-width="0"/><path id="e" d="m187.56,121.81V55.7c0-6.99,3.83-12.4,11.08-12.4s11.08,5.41,11.08,12.4v58.46h24.54c6.33,0,11.35,3.43,11.35,10.16s-5.01,10.16-11.35,10.16h-32.07c-11.08,0-14.65-5.54-14.65-12.67Zm88.15-7.65h28.9c6.33,0,11.35,3.43,11.35,10.16s-5.01,10.16-11.35,10.16h-42.23c-5.94,0-8.84-3.3-8.84-8.45V52.14c0-5.15,2.9-8.45,8.84-8.45h41.44c6.33,0,11.35,3.43,11.35,10.16s-5.01,10.16-11.35,10.16h-28.11v10.69h24.94c6.2,0,10.95,3.3,10.95,9.77s-4.75,9.77-10.95,9.77h-24.94v19.93h0Zm116.79-70.86c6.86,0,11.35,3.69,11.35,10.82,0,15.31-6.6,37.34-13.06,51.2-13.99,29.96-22.17,29.96-28.24,29.96s-14.25,0-28.24-29.96c-6.47-13.86-13.06-35.89-13.06-51.2,0-7.13,4.49-10.82,11.35-10.82,9.5,0,10.03,4.09,11.35,10.82,3.96,20.06,7.52,42.23,18.61,56.87,11.08-14.65,15.04-36.69,18.61-56.87,1.19-6.73,1.85-10.82,11.35-10.82Zm22.04,81.68V56.49c0-9.5,5.81-12.8,18.61-12.8,35.1,0,57.8,20.32,57.8,52.12,0,24.54-16.23,38.66-39.32,38.66h-24.15c-9.24,0-12.93-4.22-12.93-9.5Zm22.17-60.97v50.14h10.69c7.52,0,20.06-1.06,20.06-20.19,0-18.08-13.33-29.69-30.75-29.96Zm92.24,71.26c-20.19,0-30.61-59.25-30.61-75.61,0-8.71.79-16.36,12.27-16.36,9.37,0,11.22,8.45,11.22,19,0,12.54,2.51,28.5,9.11,41.96,5.28-13.59,8.71-28.24,10.29-43.15,1.32-12.27,1.85-17.81,11.88-17.81s10.82,5.54,12.14,17.81c1.58,14.91,5.01,29.56,10.29,43.15,6.6-13.46,9.11-29.43,9.11-41.96,0-10.56,1.85-19,11.22-19,11.48,0,12.27,7.65,12.27,16.36,0,16.36-10.42,75.61-30.61,75.61-7.39,0-14.12,0-24.15-37.48h-.26c-10.03,37.48-16.76,37.48-24.15,37.48h0Zm90.26-12.93V55.83c0-7.13,3.83-12.54,11.08-12.54s11.08,5.41,11.08,12.54v66.51c0,7.13-3.83,12.54-11.08,12.54s-11.08-5.41-11.08-12.54Zm38.4.13V57.95c0-10.16,3.43-14.25,13.59-14.25h28.24c15.84,0,25.47,6.6,25.47,20.45,0,10.03-4.88,15.97-12.27,22.3,9.5,8.71,15.57,22.7,15.57,34.71,0,7.92-2.24,13.72-9.77,13.72-19,0-.79-39.98-39.46-39.98v27.58c0,6.99-3.83,12.4-10.69,12.4s-10.69-5.41-10.69-12.4h0Zm21.38-59.25v12.14c5.81,0,13.2,1.32,16.36,1.32,3.69,0,7.39-6.07,7.39-9.11s-2.24-4.35-6.33-4.35h-17.42Zm80.76,50.94h28.9c6.33,0,11.35,3.43,11.35,10.16s-5.01,10.16-11.35,10.16h-42.23c-5.94,0-8.84-3.3-8.84-8.45V52.14c0-5.15,2.9-8.45,8.84-8.45h41.44c6.33,0,11.35,3.43,11.35,10.16s-5.01,10.16-11.35,10.16h-28.11v10.69h24.94c6.2,0,10.95,3.3,10.95,9.77s-4.75,9.77-10.95,9.77h-24.94v19.93h0Z" fill="none" stroke-width="0"/><g id="f"><path d="m169.59,85.44c0-23.94-9.92-45.56-25.88-60.98,15.75,54.6-17.83,107.54-55.43,92.6-41.24-16.38-68.53,53.17,33.67,44.61,28.21-13.77,47.64-42.73,47.64-76.24Z" fill="url(#g)" stroke-width="0"/><path d="m88.28,117.07c-41.24-16.38-68.53,53.17,33.67,44.61,20.04-9.79,37.4-32.95,44.76-54.25-17.05,36.41-52.63,29.21-78.43,9.65Z" fill="url(#h)" mix-blend-mode="overlay" opacity=".27" stroke-width="0"/><path d="m0,85.32c0,23.94,9.92,45.56,25.88,60.98-15.75-54.6,17.83-107.54,55.43-92.6C122.55,70.07,149.84.52,47.64,9.08,19.43,22.86,0,51.82,0,85.32Z" fill="url(#i)" stroke-width="0"/><path d="m47.64,9.08c-14.75,7.2-27.09,18.56-35.52,32.55,14.55-11.26,32.99,1.5,39.62,13.99,8.89-4.97,19.07-6.1,29.57-1.93C122.55,70.07,149.84.52,47.64,9.08Z" fill="url(#j)" mix-blend-mode="overlay" opacity=".27" stroke-width="0"/><path d="m69.26,101.42C32.36,51.2-1.96,56.01.47,94.38c4.47,42.63,40.52,75.86,84.33,75.86,39.23,0,72.23-26.64,81.92-62.81-15.1,43.82-62.5,41.57-97.45-6.01Z" fill="url(#k)" stroke-width="0"/><path d="m75.8,129.85c-24.9-27.2-43.65-38.01-57.58-34.38-10.84,2.83-14.87,18.39-2.77,38.77,15.35,21.77,40.69,35.99,69.35,35.99,30.54,0,57.31-16.15,72.24-40.37-22.62,29.89-56.41,27.1-81.23-.01Z" fill="url(#l)" mix-blend-mode="color-dodge" opacity=".31" stroke-width="0"/><path d="m130.36,156.96c-53.64,19.06-72.99-32.89-95.24-25.78-11.81,3.77-4.48,24.8,20.16,33.77,9.21,3.36,19.13,5.28,29.51,5.28,16.77,0,32.41-4.87,45.57-13.28Z" fill="url(#m)" mix-blend-mode="color-dodge" opacity=".31" stroke-width="0"/><path d="m150.77,32.17C135.22,12.94,111.45.64,84.8.64,54.06.64,27.14,17,12.27,41.48c17.33-17.02,35.95-11.4,64.1,35.37,17.05,28.33,43.14,40.6,64.22,31.13,21.19-9.52,28.22-49.83,10.18-75.81Z" fill="url(#n)" stroke-width="0"/><path d="m133.02,15.69C119.33,6.21,102.71.64,84.8.64c-22.87,0-43.62,9.06-58.87,23.77,7.26-6.21,31.14-14.43,62.21,29.93,14.37,20.51,41.31,27.06,53.5,16.97,12.98-10.75,10.24-39.35-8.63-55.63Z" fill="url(#o)" mix-blend-mode="color-dodge" opacity=".31" stroke-width="0"/><path d="m70.28,1.88c-10.31,1.78-19.99,5.42-28.67,10.57.18-.07,21.04-7.9,40.08,8.25,16.33,13.85,32.15,23.38,42.33,16.04C138.69,26.17,98.68-1.72,70.28,1.88Z" fill="url(#p)" mix-blend-mode="color-dodge" opacity=".37" stroke-width="0"/></g></g></g></g></svg>