<?xml version="1.0" encoding="UTF-8"?><svg id="b" xmlns="http://www.w3.org/2000/svg" xmlns:xlink="http://www.w3.org/1999/xlink" viewBox="0 0 500 500"><defs><linearGradient id="g" x1="202.17" y1="349.19" x2="368.65" y2="349.19" gradientUnits="userSpaceOnUse"><stop offset="0" stop-color="#633e91"/><stop offset="1" stop-color="#8861a6"/></linearGradient><linearGradient id="i" x1="64.2" y1="272.84" x2="260.42" y2="272.84" xlink:href="#g"/><linearGradient id="k" x1="145.14" y1="160.17" x2="320.82" y2="160.17" xlink:href="#g"/><linearGradient id="m" x1="253.37" y1="228.54" x2="435.8" y2="228.54" xlink:href="#g"/><linearGradient id="o" x1="224.55" y1="255.21" x2="291.39" y2="255.21" xlink:href="#g"/></defs><g id="c"><g id="d"><rect id="e" width="500" height="500" fill="#e4e7ee" stroke-width="0"/><g id="f"><path id="h" d="m368.65,295.99c-5.83-11.34-11.65-22.08-18.4-32.5-30.97,47.83-82.78,90.75-148.09,117.43l22.08,53.96c67.45-27.29,118.04-78.8,144.41-138.89Z" fill="url(#g)" stroke-width="0"/><path id="j" d="m234.36,361.6c8.89-4.91,17.78-10.12,26.06-15.64-57.64-27.59-110.99-85.24-142.26-161.89l-53.96,22.08c32.5,79.1,96.89,134.6,170.16,155.45Z" fill="url(#i)" stroke-width="0"/><path id="l" d="m320.82,119.08l-21.77-53.96c-77.26,31.27-131.84,93.51-153.91,164.34,5.52,8.89,11.04,17.48,16.86,25.75,28.51-55.19,84.93-106.08,158.82-136.13Z" fill="url(#k)" stroke-width="0"/><path id="n" d="m435.8,292.92c-30.05-73.58-87.69-126.63-154.53-150.85-9.81,5.83-19.01,11.65-27.9,18.09,52.43,29.74,99.65,84.32,128.47,154.83l53.96-22.08Z" fill="url(#m)" stroke-width="0"/><circle id="p" cx="257.97" cy="255.21" r="33.42" fill="url(#o)" stroke-width="0"/></g></g></g></svg>